<?xml version="1.0" encoding="utf-8"?>
<!-- Generator: Adobe Illustrator 27.2.0, SVG Export Plug-In . SVG Version: 6.00 Build 0)  -->
<svg version="1.1" id="Calque_1" xmlns="http://www.w3.org/2000/svg" xmlns:xlink="http://www.w3.org/1999/xlink" x="0px" y="0px"
	 viewBox="0 0 383 119" style="enable-background:new 0 0 383 119;" xml:space="preserve">
<style type="text/css">
	.st0{fill:url(#SVGID_1_);}
	.st1{fill:#FFFFFF;}
</style>
<linearGradient id="SVGID_1_" gradientUnits="userSpaceOnUse" x1="11" y1="59" x2="369" y2="59">
	<stop  offset="0" style="stop-color:#61B95A"/>
	<stop  offset="1" style="stop-color:#88C24B"/>
</linearGradient>
<path class="st0" d="M357,111H23c-6.6,0-12-5.4-12-12V19c0-6.6,5.4-12,12-12h334c6.6,0,12,5.4,12,12v80C369,105.6,363.6,111,357,111
	z"/>
<g>
	<path class="st1" d="M61.8,72.3V42.2h11.4c2,0,3.5,0.1,4.6,0.3c1.5,0.2,2.7,0.7,3.7,1.4c1,0.7,1.8,1.7,2.4,2.9s0.9,2.6,0.9,4.1
		c0,2.6-0.8,4.7-2.4,6.5c-1.6,1.8-4.6,2.7-8.9,2.7h-7.7v12.3H61.8z M65.8,56.5h7.8c2.6,0,4.4-0.5,5.5-1.4s1.6-2.3,1.6-4.1
		c0-1.3-0.3-2.3-1-3.2c-0.6-0.9-1.5-1.5-2.5-1.8c-0.7-0.2-1.9-0.3-3.7-0.3h-7.7V56.5z"/>
	<path class="st1" d="M103.7,69.6c-1.4,1.2-2.7,2-4,2.5c-1.3,0.5-2.6,0.7-4.1,0.7c-2.4,0-4.2-0.6-5.5-1.8c-1.3-1.2-1.9-2.7-1.9-4.5
		c0-1.1,0.2-2,0.7-2.9s1.1-1.6,1.9-2.1c0.8-0.5,1.7-0.9,2.7-1.2c0.7-0.2,1.8-0.4,3.3-0.6c3-0.4,5.2-0.8,6.6-1.3c0-0.5,0-0.8,0-1
		c0-1.5-0.3-2.6-1-3.2c-0.9-0.8-2.4-1.3-4.2-1.3c-1.7,0-3,0.3-3.9,0.9c-0.8,0.6-1.4,1.7-1.8,3.2l-3.6-0.5c0.3-1.6,0.9-2.8,1.6-3.8
		c0.8-1,1.8-1.7,3.3-2.2c1.4-0.5,3.1-0.8,5-0.8c1.9,0,3.4,0.2,4.5,0.7c1.2,0.4,2,1,2.6,1.7c0.5,0.7,0.9,1.5,1.2,2.5
		c0.1,0.6,0.2,1.8,0.2,3.4v4.9c0,3.4,0.1,5.6,0.2,6.5c0.2,0.9,0.5,1.8,0.9,2.6h-3.9C104.1,71.6,103.8,70.7,103.7,69.6z M103.4,61.4
		c-1.3,0.5-3.4,1-6.1,1.4c-1.5,0.2-2.6,0.5-3.2,0.7c-0.6,0.3-1.1,0.7-1.5,1.2c-0.3,0.5-0.5,1.1-0.5,1.8c0,1,0.4,1.8,1.1,2.5
		c0.7,0.7,1.8,1,3.3,1c1.4,0,2.7-0.3,3.8-0.9c1.1-0.6,1.9-1.5,2.4-2.6c0.4-0.8,0.6-2.1,0.6-3.7V61.4z"/>
	<path class="st1" d="M112.7,80.8l-0.4-3.5c0.8,0.2,1.5,0.3,2.1,0.3c0.8,0,1.5-0.1,2-0.4c0.5-0.3,0.9-0.7,1.2-1.2
		c0.2-0.4,0.6-1.3,1.1-2.8c0.1-0.2,0.2-0.5,0.3-0.9l-8.3-21.9h4l4.5,12.7c0.6,1.6,1.1,3.3,1.6,5.1c0.4-1.7,0.9-3.4,1.5-5l4.7-12.7
		h3.7l-8.3,22.2c-0.9,2.4-1.6,4.1-2.1,5c-0.7,1.2-1.4,2.1-2.3,2.7c-0.9,0.6-1.9,0.9-3,0.9C114.4,81.2,113.6,81.1,112.7,80.8z"/>
	<path class="st1" d="M146.1,72.3V42.2h6l7.1,21.4c0.7,2,1.1,3.5,1.4,4.5c0.3-1.1,0.9-2.7,1.6-4.8l7.2-21h5.4v30.2H171V47.1
		l-8.8,25.3h-3.6l-8.7-25.7v25.7H146.1z"/>
	<path class="st1" d="M180.7,80.8l-0.4-3.5c0.8,0.2,1.5,0.3,2.1,0.3c0.8,0,1.5-0.1,2-0.4c0.5-0.3,0.9-0.7,1.2-1.2
		c0.2-0.4,0.6-1.3,1.1-2.8c0.1-0.2,0.2-0.5,0.3-0.9l-8.3-21.9h4l4.5,12.7c0.6,1.6,1.1,3.3,1.6,5.1c0.4-1.7,0.9-3.4,1.5-5l4.7-12.7
		h3.7l-8.3,22.2c-0.9,2.4-1.6,4.1-2.1,5c-0.7,1.2-1.4,2.1-2.3,2.7c-0.9,0.6-1.9,0.9-3,0.9C182.3,81.2,181.5,81.1,180.7,80.8z"/>
	<path class="st1" d="M213.9,72.3V42.2h11.3c2.3,0,4.2,0.3,5.5,0.9c1.4,0.6,2.5,1.6,3.3,2.8c0.8,1.3,1.2,2.6,1.2,4
		c0,1.3-0.3,2.5-1,3.6c-0.7,1.1-1.8,2.1-3.2,2.8c1.8,0.5,3.2,1.4,4.2,2.7s1.5,2.8,1.5,4.6c0,1.4-0.3,2.7-0.9,3.9
		c-0.6,1.2-1.3,2.2-2.2,2.8c-0.9,0.7-2,1.2-3.3,1.5s-2.9,0.5-4.9,0.5H213.9z M217.9,54.8h6.5c1.8,0,3-0.1,3.8-0.3
		c1-0.3,1.8-0.8,2.3-1.5c0.5-0.7,0.8-1.6,0.8-2.6c0-1-0.2-1.9-0.7-2.6c-0.5-0.8-1.2-1.3-2.1-1.6c-0.9-0.3-2.4-0.4-4.6-0.4h-6V54.8z
		 M217.9,68.8h7.5c1.3,0,2.2,0,2.7-0.1c0.9-0.2,1.7-0.4,2.3-0.8c0.6-0.4,1.1-0.9,1.5-1.7c0.4-0.7,0.6-1.6,0.6-2.5
		c0-1.1-0.3-2.1-0.9-2.9c-0.6-0.8-1.4-1.4-2.4-1.7s-2.5-0.5-4.4-0.5h-7V68.8z"/>
	<path class="st1" d="M256.1,72.3v-3.2c-1.7,2.5-4,3.7-6.9,3.7c-1.3,0-2.5-0.2-3.6-0.7c-1.1-0.5-1.9-1.1-2.5-1.9s-0.9-1.7-1.1-2.7
		c-0.2-0.7-0.2-1.9-0.2-3.5V50.5h3.7v12.1c0,1.9,0.1,3.2,0.2,3.9c0.2,1,0.7,1.7,1.5,2.3c0.8,0.6,1.7,0.8,2.8,0.8
		c1.1,0,2.2-0.3,3.1-0.9c1-0.6,1.7-1.3,2.1-2.3c0.4-1,0.6-2.4,0.6-4.3V50.5h3.7v21.9H256.1z"/>
	<path class="st1" d="M279.4,72.3v-2.8c-1.4,2.2-3.4,3.3-6.1,3.3c-1.7,0-3.3-0.5-4.8-1.4c-1.5-1-2.6-2.3-3.4-4
		c-0.8-1.7-1.2-3.7-1.2-5.9c0-2.2,0.4-4.2,1.1-5.9c0.7-1.8,1.8-3.1,3.3-4.1c1.5-0.9,3.1-1.4,4.9-1.4c1.3,0,2.5,0.3,3.5,0.8
		c1,0.6,1.9,1.3,2.5,2.2V42.2h3.7v30.2H279.4z M267.6,61.4c0,2.8,0.6,4.9,1.8,6.3c1.2,1.4,2.6,2.1,4.2,2.1c1.6,0,3-0.7,4.1-2
		s1.7-3.3,1.7-6.1c0-3-0.6-5.2-1.7-6.6c-1.2-1.4-2.6-2.1-4.3-2.1c-1.6,0-3,0.7-4.1,2C268.2,56.4,267.6,58.5,267.6,61.4z"/>
	<path class="st1" d="M302.8,72.3v-2.8c-1.4,2.2-3.4,3.3-6.1,3.3c-1.7,0-3.3-0.5-4.8-1.4c-1.5-1-2.6-2.3-3.4-4
		c-0.8-1.7-1.2-3.7-1.2-5.9c0-2.2,0.4-4.2,1.1-5.9s1.8-3.1,3.3-4.1c1.5-0.9,3.1-1.4,4.9-1.4c1.3,0,2.5,0.3,3.5,0.8
		c1,0.6,1.9,1.3,2.5,2.2V42.2h3.7v30.2H302.8z M291.1,61.4c0,2.8,0.6,4.9,1.8,6.3c1.2,1.4,2.6,2.1,4.2,2.1c1.6,0,3-0.7,4.1-2
		s1.7-3.3,1.7-6.1c0-3-0.6-5.2-1.7-6.6c-1.2-1.4-2.6-2.1-4.3-2.1c-1.6,0-3,0.7-4.1,2C291.6,56.4,291.1,58.5,291.1,61.4z"/>
	<path class="st1" d="M311.9,80.8l-0.4-3.5c0.8,0.2,1.5,0.3,2.1,0.3c0.8,0,1.5-0.1,2-0.4c0.5-0.3,0.9-0.7,1.2-1.2
		c0.2-0.4,0.6-1.3,1.1-2.8c0.1-0.2,0.2-0.5,0.3-0.9L310,50.5h4l4.5,12.7c0.6,1.6,1.1,3.3,1.6,5.1c0.4-1.7,0.9-3.4,1.5-5l4.7-12.7
		h3.7l-8.3,22.2c-0.9,2.4-1.6,4.1-2.1,5c-0.7,1.2-1.4,2.1-2.3,2.7c-0.9,0.6-1.9,0.9-3,0.9C313.6,81.2,312.8,81.1,311.9,80.8z"/>
</g>
</svg>
